<?xml version="1.0" encoding="utf-8"?>
<!-- Generator: Adobe Illustrator 26.0.2, SVG Export Plug-In . SVG Version: 6.00 Build 0)  -->
<svg version="1.1" id="Ebene_1" xmlns="http://www.w3.org/2000/svg" xmlns:xlink="http://www.w3.org/1999/xlink" x="0px" y="0px"
	 viewBox="0 0 350.4 84.3" enable-background="new 0 0 350.4 84.3" xml:space="preserve">
     <style type="text/css">
	.st0{fill-rule:evenodd;clip-rule:evenodd;fill:#999999;}
	.st1{fill:#FF6600;}
	.st2{display:none;}
	.st3{display:inline;}
	.st4{display:inline;fill-rule:evenodd;clip-rule:evenodd;}
	.st5{fill-rule:evenodd;clip-rule:evenodd;}
	@media all and (max-width: 100px) {
	#wortmarke,#claim{visibility:hidden;}
	}
</style>
<script type="text/javascript">
	var svg, originalViewbox, mq, updateViewbox;
	svg = document.querySelector('svg');
	originalViewbox = svg.getAttribute('viewBox');
	mq = matchMedia("(max-width: 100px)");
	updateViewbox = function() {
		if (mq.matches) {
			svg.setAttribute('viewBox', "0 0 91.913 91.913");
		} else {
			svg.setAttribute('viewBox', originalViewbox);
		}
	}
	svg.onload = updateViewbox;
	svg.addEventListener('SVGLoad', updateViewbox, true);
	mq.addListener(updateViewbox);
</script>
<path id="SALZGITTER_AG" d="M350.3,32.5H348v7.3c-0.9,0.5-2.5,0.9-4.2,0.9c-4.9,0-8.1-3.3-8.1-8.7c0-5.1,3-8.6,8.4-8.6
	c2.2,0,4.1,0.6,5.6,1.3v-2.2c-1.2-0.5-3.3-1.1-5.7-1.1c-6.4,0-10.7,4.5-10.7,10.9c0,6.1,4.1,10.4,10.3,10.4c2.9,0,5.4-0.9,6.8-1.6
	v-8.6H350.3z M318.6,34.8l2.2-6c0.7-1.8,1-2.8,1.3-3.6h0.1c0.3,0.8,0.6,1.8,1.2,3.6l2.1,6H318.6z M313.3,42.4h2.5l2.1-5.6h8.4
	l2.1,5.6h2.5l-8-20.9h-1.6L313.3,42.4z M296.5,31v-5.9h1.6c0.9,0,1.5,0.2,2,0.4c0.9,0.5,1.4,1.4,1.4,2.5c0,1.2-0.6,2-1.4,2.5
	c-0.5,0.3-1.1,0.4-2.1,0.4h-1.5V31z M292.2,42.4h4.3v-7.9h1.6c0.5,0.1,1.2,0.9,2.3,2.9l2.7,5h5l-3.4-6c-1.1-1.9-2-3.1-2.7-3.4v-0.1
	c2.3-0.7,4-2.6,4-5.3c0-2.2-0.9-4.2-3.3-5.2c-1.1-0.5-2.5-0.8-4.4-0.8h-6.2v20.8H292.2z M272.1,42.4h12v-3.7h-7.7v-5.1h6.6V30h-6.6
	v-4.8h6.6l1.1-3.7h-12V42.4z M254.8,42.4h4.3V25.2h5.5l1.1-3.7h-17v3.7h6.1V42.4z M233.5,42.4h4.3V25.2h5.5l1.1-3.7h-17v3.7h6.1
	L233.5,42.4L233.5,42.4z M216.4,42.4h4.3V21.5h-4.3V42.4z M207.8,32.2h-4.3v6.4c-0.8,0.3-1.9,0.5-3.2,0.5c-4.3,0-6.7-2.8-6.7-7
	s2.5-7.1,7.4-7.1c2.3,0,4.1,0.6,5.8,1.4v-4c-1.7-0.6-3.7-1-6.2-1c-7.1,0-11.7,4.7-11.7,11c0,5.9,4,10.3,11.1,10.3
	c2.9,0,5.8-0.7,7.8-1.7L207.8,32.2L207.8,32.2z M165.7,42.4h17.1v-3.7h-10l10.1-17.2h-16.6l1.1,3.7h8.6L165.7,42.4z M149.1,42.4
	h11.6v-3.7h-7.3V21.5h-4.3V42.4z M130.1,33.8l1.3-3.5c0.6-1.5,0.9-2.4,1-3.1h0.1c0.2,0.7,0.4,1.6,0.9,3.1l1.2,3.5H130.1z
	 M122.4,42.4h4.5l1.9-5.1h7.1l2,5.1h4.6L134,21.5h-3.5L122.4,42.4z M102.6,40.8c1.7,1.2,4.1,1.9,6.5,1.9c4.4,0,7.7-2.3,7.7-6.1
	c0-6.6-8.9-6.1-8.9-9.7c0-1.5,1.2-1.9,2.5-1.9c1.7,0,3.3,0.5,5.2,1.4v-3.9c-1.2-0.6-3.1-1.1-5.3-1.1c-4.5,0-7,2.8-7,5.9
	c0,6.4,8.9,5.9,8.9,9.7c0,1.6-1.6,2.1-3.2,2.1c-1.8,0-3.4-0.7-4.7-1.5L102.6,40.8z"/>
<g id="Bildmarke">
	<path fill="#EB6619" d="M55.1,56.4h0.4V28.5H27.6v0.3C40.7,33,51,43.3,55.1,56.4z"/>
	<g>
		<g>
			<path fill="#B0BDC7" d="M12.7,42.2c0-16.2,13.2-29.4,29.4-29.4c6,0,11.6,1.8,16.3,4.9l9.2-9.2C60.5,3.2,51.8,0,42.2,0
				C18.9,0.1,0,18.9,0,42.2c0,9.5,3.2,18.3,8.5,25.4l9-9C14.5,53.8,12.7,48.2,12.7,42.2z"/>
			<path fill="#B0BDC7" d="M75.7,16.8L66.5,26c3.1,4.7,4.9,10.2,4.9,16.3c0,16.2-13.2,29.4-29.4,29.4c-6,0-11.6-1.8-16.3-4.9l-9,9
				c7.1,5.3,15.8,8.5,25.4,8.5c23.2,0,42.1-18.8,42.1-42.1C84.2,32.6,81,23.8,75.7,16.8z"/>
		</g>
	</g>
</g>
<g id="People_x2C__Steel_and_Technology">
	<path d="M107.586,51.761c0.412,0.481,0.617,1.111,0.617,1.892c0,0.763-0.199,1.378-0.598,1.846
		c-0.398,0.469-0.923,0.702-1.573,0.702h-1.222c-0.035,0-0.052,0.018-0.052,0.052v3.771c0,0.087-0.044,0.13-0.13,0.13h-0.988
		c-0.087,0-0.13-0.043-0.13-0.13V51.17c0-0.086,0.043-0.13,0.13-0.13h2.327C106.635,51.039,107.174,51.28,107.586,51.761z
		 M106.631,54.79c0.216-0.273,0.324-0.644,0.324-1.111c0-0.477-0.108-0.856-0.324-1.138c-0.217-0.281-0.503-0.423-0.858-0.423
		h-0.962c-0.035,0-0.052,0.018-0.052,0.052v2.978c0,0.034,0.017,0.052,0.052,0.052h0.962
		C106.128,55.199,106.415,55.063,106.631,54.79z"/>
	<path d="M117.642,57.358h-2.938c-0.034,0-0.052,0.018-0.052,0.052v0.702c0,0.312,0.087,0.567,0.26,0.767
		c0.174,0.2,0.398,0.3,0.677,0.3c0.242,0,0.446-0.074,0.61-0.222c0.165-0.147,0.269-0.338,0.312-0.571
		c0.025-0.069,0.073-0.104,0.143-0.104l0.962,0.052c0.044,0,0.076,0.014,0.098,0.039c0.021,0.026,0.028,0.057,0.02,0.091
		c-0.061,0.563-0.275,1.004-0.644,1.32s-0.869,0.474-1.501,0.474c-0.668,0-1.198-0.186-1.593-0.559
		c-0.395-0.372-0.592-0.871-0.592-1.495V55.5c0-0.615,0.197-1.113,0.592-1.495c0.395-0.381,0.925-0.571,1.593-0.571
		c0.676,0,1.209,0.19,1.599,0.571c0.39,0.382,0.585,0.88,0.585,1.495v1.729C117.772,57.315,117.728,57.358,117.642,57.358z
		 M114.912,54.81c-0.173,0.199-0.26,0.455-0.26,0.767v0.689c0,0.034,0.018,0.052,0.052,0.052h1.781c0.034,0,0.052-0.018,0.052-0.052
		v-0.689c0-0.312-0.086-0.567-0.26-0.767s-0.403-0.299-0.688-0.299C115.31,54.511,115.085,54.61,114.912,54.81z"/>
	<path d="M123.68,59.691c-0.395-0.377-0.592-0.877-0.592-1.501v-2.691c0-0.615,0.199-1.113,0.599-1.495
		c0.398-0.381,0.931-0.571,1.599-0.571c0.676,0,1.213,0.19,1.612,0.571c0.398,0.382,0.598,0.88,0.598,1.495v2.691
		c0,0.624-0.199,1.124-0.598,1.501s-0.937,0.565-1.612,0.565S124.075,60.067,123.68,59.691z M125.974,58.872
		c0.183-0.195,0.273-0.453,0.273-0.773v-2.522c0-0.312-0.091-0.567-0.273-0.767c-0.182-0.199-0.411-0.299-0.688-0.299
		s-0.505,0.1-0.683,0.299s-0.267,0.455-0.267,0.767v2.522c0,0.32,0.089,0.578,0.267,0.773c0.178,0.194,0.405,0.292,0.683,0.292
		S125.793,59.067,125.974,58.872z"/>
	<path d="M136.901,53.997c0.334,0.377,0.501,0.873,0.501,1.488v2.704c0,0.642-0.167,1.146-0.501,1.515s-0.782,0.552-1.346,0.552
		c-0.208,0-0.418-0.038-0.63-0.116c-0.213-0.078-0.401-0.199-0.565-0.364c-0.044-0.026-0.065-0.018-0.065,0.026v2.703
		c0,0.087-0.044,0.131-0.13,0.131h-0.988c-0.087,0-0.13-0.044-0.13-0.131v-8.84c0-0.086,0.043-0.13,0.13-0.13h0.988
		c0.086,0,0.13,0.044,0.13,0.13v0.208c0,0.018,0.009,0.028,0.026,0.033c0.017,0.004,0.034-0.002,0.052-0.02
		c0.164-0.156,0.351-0.271,0.559-0.345s0.416-0.11,0.624-0.11C136.119,53.432,136.567,53.62,136.901,53.997z M135.9,54.81
		c-0.178-0.199-0.405-0.299-0.683-0.299c-0.269,0-0.489,0.1-0.663,0.299c-0.173,0.199-0.26,0.455-0.26,0.767v2.535
		c0,0.312,0.087,0.567,0.26,0.767c0.174,0.2,0.395,0.3,0.663,0.3c0.277,0,0.505-0.1,0.683-0.3c0.178-0.199,0.267-0.454,0.267-0.767
		v-2.535C136.167,55.265,136.078,55.009,135.9,54.81z"/>
	<path d="M142.848,60.023v-8.84c0-0.087,0.044-0.13,0.13-0.13h0.988c0.087,0,0.13,0.043,0.13,0.13v8.84
		c0,0.087-0.043,0.13-0.13,0.13h-0.988C142.892,60.152,142.848,60.109,142.848,60.023z"/>
	<path d="M153.768,57.358h-2.938c-0.034,0-0.052,0.018-0.052,0.052v0.702c0,0.312,0.087,0.567,0.26,0.767
		c0.174,0.2,0.398,0.3,0.677,0.3c0.242,0,0.446-0.074,0.61-0.222c0.165-0.147,0.269-0.338,0.312-0.571
		c0.025-0.069,0.073-0.104,0.143-0.104l0.962,0.052c0.044,0,0.076,0.014,0.098,0.039c0.021,0.026,0.028,0.057,0.02,0.091
		c-0.061,0.563-0.275,1.004-0.644,1.32s-0.869,0.474-1.501,0.474c-0.668,0-1.198-0.186-1.593-0.559
		c-0.395-0.372-0.592-0.871-0.592-1.495V55.5c0-0.615,0.197-1.113,0.592-1.495c0.395-0.381,0.925-0.571,1.593-0.571
		c0.676,0,1.209,0.19,1.599,0.571c0.39,0.382,0.585,0.88,0.585,1.495v1.729C153.898,57.315,153.854,57.358,153.768,57.358z
		 M151.038,54.81c-0.173,0.199-0.26,0.455-0.26,0.767v0.689c0,0.034,0.018,0.052,0.052,0.052h1.781c0.034,0,0.052-0.018,0.052-0.052
		v-0.689c0-0.312-0.086-0.567-0.26-0.767s-0.403-0.299-0.688-0.299C151.436,54.511,151.211,54.61,151.038,54.81z"/>
	<path d="M159.137,61.225c-0.026-0.03-0.035-0.062-0.026-0.098l0.377-2.886c0.009-0.078,0.052-0.117,0.13-0.117h0.858
		c0.095,0,0.134,0.048,0.117,0.144l-0.624,2.886c-0.009,0.078-0.057,0.117-0.144,0.117h-0.585
		C159.198,61.271,159.163,61.255,159.137,61.225z"/>
	<path d="M173.366,59.613c-0.421-0.43-0.631-0.99-0.631-1.684v-0.338c0-0.087,0.043-0.131,0.13-0.131h0.962
		c0.087,0,0.13,0.044,0.13,0.131v0.272c0,0.398,0.1,0.718,0.3,0.956c0.199,0.238,0.455,0.357,0.767,0.357s0.569-0.115,0.773-0.345
		c0.203-0.229,0.306-0.531,0.306-0.903c0-0.252-0.055-0.473-0.162-0.663c-0.109-0.19-0.252-0.362-0.43-0.514
		s-0.466-0.375-0.864-0.67c-0.442-0.329-0.789-0.61-1.04-0.845s-0.464-0.516-0.637-0.845c-0.174-0.329-0.261-0.715-0.261-1.157
		c0-0.702,0.208-1.259,0.624-1.671c0.416-0.411,0.958-0.617,1.625-0.617c0.693,0,1.25,0.221,1.671,0.663
		c0.42,0.442,0.631,1.022,0.631,1.742v0.325c0,0.086-0.044,0.13-0.13,0.13h-0.963c-0.086,0-0.13-0.044-0.13-0.13v-0.352
		c0-0.39-0.1-0.704-0.299-0.942s-0.459-0.357-0.78-0.357c-0.303,0-0.55,0.106-0.74,0.318c-0.191,0.213-0.286,0.51-0.286,0.891
		c0,0.347,0.095,0.64,0.286,0.878c0.19,0.238,0.559,0.557,1.104,0.955c0.521,0.39,0.912,0.706,1.177,0.949
		c0.265,0.242,0.468,0.509,0.611,0.799c0.143,0.291,0.214,0.636,0.214,1.034c0,0.728-0.212,1.311-0.637,1.748
		s-0.979,0.656-1.664,0.656S173.786,60.042,173.366,59.613z"/>
	<path d="M185.176,54.445h-0.91c-0.034,0-0.052,0.018-0.052,0.052v3.653c0,0.347,0.061,0.587,0.182,0.722
		c0.121,0.134,0.312,0.197,0.572,0.188h0.117c0.086,0,0.13,0.043,0.13,0.13v0.832c0,0.087-0.044,0.13-0.13,0.13h-0.403
		c-0.555,0-0.973-0.108-1.255-0.325c-0.281-0.217-0.422-0.628-0.422-1.234v-4.096c0-0.034-0.018-0.052-0.052-0.052h-0.508
		c-0.086,0-0.13-0.043-0.13-0.13v-0.65c0-0.086,0.044-0.13,0.13-0.13h0.508c0.034,0,0.052-0.017,0.052-0.052v-1.469
		c0-0.087,0.043-0.13,0.13-0.13h0.949c0.086,0,0.13,0.043,0.13,0.13v1.469c0,0.035,0.018,0.052,0.052,0.052h0.91
		c0.087,0,0.13,0.044,0.13,0.13v0.65C185.306,54.402,185.263,54.445,185.176,54.445z"/>
	<path d="M194.679,57.358h-2.938c-0.034,0-0.052,0.018-0.052,0.052v0.702c0,0.312,0.087,0.567,0.26,0.767
		c0.174,0.2,0.398,0.3,0.677,0.3c0.242,0,0.446-0.074,0.61-0.222c0.165-0.147,0.269-0.338,0.312-0.571
		c0.025-0.069,0.073-0.104,0.143-0.104l0.962,0.052c0.044,0,0.076,0.014,0.098,0.039c0.021,0.026,0.028,0.057,0.02,0.091
		c-0.061,0.563-0.275,1.004-0.644,1.32s-0.869,0.474-1.501,0.474c-0.668,0-1.198-0.186-1.593-0.559
		c-0.395-0.372-0.592-0.871-0.592-1.495V55.5c0-0.615,0.197-1.113,0.592-1.495c0.395-0.381,0.925-0.571,1.593-0.571
		c0.676,0,1.209,0.19,1.599,0.571c0.39,0.382,0.585,0.88,0.585,1.495v1.729C194.809,57.315,194.765,57.358,194.679,57.358z
		 M191.949,54.81c-0.173,0.199-0.26,0.455-0.26,0.767v0.689c0,0.034,0.018,0.052,0.052,0.052h1.781c0.034,0,0.052-0.018,0.052-0.052
		v-0.689c0-0.312-0.086-0.567-0.26-0.767s-0.403-0.299-0.688-0.299C192.347,54.511,192.123,54.61,191.949,54.81z"/>
	<path d="M204.364,57.358h-2.938c-0.034,0-0.052,0.018-0.052,0.052v0.702c0,0.312,0.087,0.567,0.26,0.767
		c0.174,0.2,0.398,0.3,0.677,0.3c0.242,0,0.446-0.074,0.61-0.222c0.165-0.147,0.269-0.338,0.312-0.571
		c0.025-0.069,0.073-0.104,0.143-0.104l0.962,0.052c0.044,0,0.076,0.014,0.098,0.039c0.021,0.026,0.028,0.057,0.02,0.091
		c-0.061,0.563-0.275,1.004-0.644,1.32s-0.869,0.474-1.501,0.474c-0.668,0-1.198-0.186-1.593-0.559
		c-0.395-0.372-0.592-0.871-0.592-1.495V55.5c0-0.615,0.197-1.113,0.592-1.495c0.395-0.381,0.925-0.571,1.593-0.571
		c0.676,0,1.209,0.19,1.599,0.571c0.39,0.382,0.585,0.88,0.585,1.495v1.729C204.494,57.315,204.45,57.358,204.364,57.358z
		 M201.633,54.81c-0.173,0.199-0.26,0.455-0.26,0.767v0.689c0,0.034,0.018,0.052,0.052,0.052h1.781c0.034,0,0.052-0.018,0.052-0.052
		v-0.689c0-0.312-0.086-0.567-0.26-0.767s-0.403-0.299-0.688-0.299C202.032,54.511,201.807,54.61,201.633,54.81z"/>
	<path d="M209.876,60.023v-8.84c0-0.087,0.044-0.13,0.13-0.13h0.988c0.087,0,0.13,0.043,0.13,0.13v8.84
		c0,0.087-0.043,0.13-0.13,0.13h-0.988C209.919,60.152,209.876,60.109,209.876,60.023z"/>
	<path d="M227.224,54.029c0.403,0.398,0.604,0.923,0.604,1.573v4.42c0,0.087-0.044,0.13-0.13,0.13h-0.988
		c-0.087,0-0.13-0.043-0.13-0.13v-0.286c0-0.018-0.007-0.03-0.02-0.039s-0.028-0.004-0.046,0.013
		c-0.303,0.364-0.749,0.546-1.339,0.546c-0.494,0-0.93-0.141-1.307-0.422s-0.565-0.782-0.565-1.502c0-0.754,0.228-1.307,0.683-1.657
		s1.051-0.526,1.788-0.526h0.754c0.034,0,0.052-0.018,0.052-0.052V55.72c0-0.364-0.087-0.657-0.26-0.878
		c-0.174-0.221-0.399-0.331-0.676-0.331c-0.217,0-0.399,0.073-0.547,0.221s-0.233,0.338-0.26,0.572c0,0.086-0.043,0.13-0.13,0.13
		h-1.053c-0.087,0-0.13-0.044-0.13-0.13c0.043-0.555,0.264-1.006,0.663-1.353c0.398-0.347,0.893-0.52,1.481-0.52
		C226.303,53.432,226.821,53.631,227.224,54.029z M226.243,58.878c0.226-0.19,0.338-0.459,0.338-0.806v-0.884
		c0-0.034-0.018-0.052-0.052-0.052h-0.793c-0.347,0-0.624,0.093-0.832,0.279s-0.312,0.457-0.312,0.812
		c0,0.312,0.078,0.546,0.234,0.702c0.156,0.155,0.364,0.233,0.624,0.233C225.752,59.164,226.017,59.069,226.243,58.878z"/>
	<path d="M237.221,53.997c0.29,0.368,0.436,0.891,0.436,1.566v4.459c0,0.087-0.043,0.13-0.13,0.13h-0.988
		c-0.087,0-0.13-0.043-0.13-0.13v-4.355c0-0.363-0.078-0.646-0.233-0.845c-0.156-0.199-0.373-0.299-0.65-0.299
		c-0.286,0-0.51,0.098-0.67,0.292c-0.16,0.195-0.249,0.471-0.267,0.826c0,0.052-0.004,0.078-0.013,0.078v4.303
		c0,0.087-0.043,0.13-0.13,0.13h-0.988c-0.086,0-0.13-0.043-0.13-0.13v-6.357c0-0.086,0.044-0.13,0.13-0.13h0.988
		c0.087,0,0.13,0.044,0.13,0.13v0.352c0,0.018,0.009,0.028,0.026,0.032c0.017,0.005,0.034-0.007,0.052-0.032
		c0.312-0.382,0.75-0.572,1.313-0.572C236.513,53.444,236.931,53.629,237.221,53.997z"/>
	<path d="M246.328,51.053h0.988c0.086,0,0.13,0.043,0.13,0.13v8.84c0,0.087-0.044,0.13-0.13,0.13h-0.988
		c-0.087,0-0.13-0.043-0.13-0.13v-0.208c0-0.018-0.007-0.03-0.02-0.039s-0.028-0.004-0.046,0.013
		c-0.164,0.156-0.351,0.273-0.559,0.352s-0.416,0.116-0.624,0.116c-0.572,0-1.025-0.188-1.358-0.565
		c-0.334-0.377-0.501-0.873-0.501-1.488V55.5c0-0.641,0.167-1.146,0.501-1.515c0.333-0.368,0.786-0.552,1.358-0.552
		c0.208,0,0.416,0.039,0.624,0.117c0.208,0.077,0.395,0.194,0.559,0.351c0.018,0.018,0.033,0.021,0.046,0.013s0.02-0.021,0.02-0.039
		v-2.69C246.198,51.096,246.241,51.053,246.328,51.053z M245.892,58.937c0.169-0.16,0.271-0.37,0.306-0.63v-2.926
		c-0.035-0.26-0.137-0.47-0.306-0.63s-0.375-0.24-0.617-0.24c-0.277,0-0.505,0.1-0.683,0.299s-0.267,0.455-0.267,0.767v2.535
		c0,0.312,0.089,0.567,0.267,0.767s0.405,0.3,0.683,0.3C245.517,59.178,245.723,59.098,245.892,58.937z"/>
	<path d="M264.581,51.183v0.818c0,0.087-0.044,0.13-0.131,0.13h-1.702c-0.035,0-0.053,0.018-0.053,0.053v7.839
		c0,0.087-0.043,0.13-0.13,0.13h-0.987c-0.087,0-0.131-0.043-0.131-0.13v-7.839c0-0.035-0.017-0.053-0.052-0.053h-1.612
		c-0.086,0-0.13-0.043-0.13-0.13v-0.818c0-0.087,0.044-0.13,0.13-0.13h4.667C264.537,51.053,264.581,51.096,264.581,51.183z"/>
	<path d="M274.031,57.358h-2.938c-0.035,0-0.053,0.018-0.053,0.052v0.702c0,0.312,0.087,0.567,0.261,0.767
		c0.173,0.2,0.398,0.3,0.676,0.3c0.242,0,0.446-0.074,0.61-0.222c0.165-0.147,0.269-0.338,0.312-0.571
		c0.026-0.069,0.073-0.104,0.143-0.104l0.963,0.052c0.043,0,0.075,0.014,0.097,0.039c0.021,0.026,0.028,0.057,0.02,0.091
		c-0.061,0.563-0.275,1.004-0.644,1.32s-0.868,0.474-1.501,0.474c-0.668,0-1.198-0.186-1.593-0.559
		c-0.395-0.372-0.592-0.871-0.592-1.495V55.5c0-0.615,0.197-1.113,0.592-1.495c0.395-0.381,0.925-0.571,1.593-0.571
		c0.676,0,1.209,0.19,1.599,0.571c0.391,0.382,0.585,0.88,0.585,1.495v1.729C274.161,57.315,274.118,57.358,274.031,57.358z
		 M271.301,54.81c-0.174,0.199-0.261,0.455-0.261,0.767v0.689c0,0.034,0.018,0.052,0.053,0.052h1.78
		c0.035,0,0.053-0.018,0.053-0.052v-0.689c0-0.312-0.087-0.567-0.261-0.767c-0.173-0.199-0.402-0.299-0.688-0.299
		C271.7,54.511,271.474,54.61,271.301,54.81z"/>
	<path d="M280.069,59.697c-0.395-0.372-0.592-0.875-0.592-1.508v-2.691c0-0.615,0.197-1.113,0.592-1.495
		c0.395-0.381,0.925-0.571,1.593-0.571c0.441,0,0.83,0.084,1.163,0.253c0.334,0.169,0.59,0.399,0.768,0.689
		c0.177,0.29,0.267,0.617,0.267,0.981v0.169c0,0.087-0.044,0.13-0.131,0.13l-0.987,0.039c-0.087,0-0.13-0.043-0.13-0.13v-0.13
		c0-0.252-0.092-0.468-0.273-0.65c-0.182-0.182-0.407-0.272-0.676-0.272c-0.277,0-0.503,0.1-0.676,0.299
		c-0.174,0.199-0.261,0.455-0.261,0.767v2.535c0,0.312,0.087,0.567,0.261,0.767c0.173,0.2,0.398,0.3,0.676,0.3
		c0.269,0,0.494-0.092,0.676-0.273s0.273-0.398,0.273-0.65v-0.13c0-0.086,0.043-0.13,0.13-0.13l0.987,0.014
		c0.087,0,0.131,0.043,0.131,0.13v0.194c0,0.563-0.2,1.025-0.599,1.385s-0.932,0.539-1.599,0.539
		C280.994,60.256,280.463,60.07,280.069,59.697z"/>
	<path d="M293.122,53.997c0.29,0.368,0.436,0.891,0.436,1.566v4.459c0,0.087-0.043,0.13-0.13,0.13h-0.988
		c-0.087,0-0.13-0.043-0.13-0.13v-4.355c0-0.363-0.078-0.646-0.233-0.845c-0.156-0.199-0.373-0.299-0.65-0.299
		c-0.286,0-0.51,0.098-0.67,0.292c-0.16,0.195-0.249,0.471-0.267,0.826c0,0.052-0.004,0.078-0.013,0.078v4.303
		c0,0.087-0.043,0.13-0.13,0.13h-0.988c-0.086,0-0.13-0.043-0.13-0.13v-8.84c0-0.087,0.044-0.13,0.13-0.13h0.988
		c0.087,0,0.13,0.043,0.13,0.13v2.834c0,0.018,0.009,0.028,0.026,0.032c0.017,0.005,0.034-0.007,0.052-0.032
		c0.312-0.382,0.75-0.572,1.313-0.572C292.414,53.444,292.832,53.629,293.122,53.997z"/>
	<path d="M303.001,53.997c0.29,0.368,0.436,0.891,0.436,1.566v4.459c0,0.087-0.043,0.13-0.13,0.13h-0.988
		c-0.087,0-0.13-0.043-0.13-0.13v-4.355c0-0.363-0.078-0.646-0.233-0.845c-0.156-0.199-0.373-0.299-0.65-0.299
		c-0.286,0-0.51,0.098-0.67,0.292c-0.16,0.195-0.249,0.471-0.267,0.826c0,0.052-0.004,0.078-0.013,0.078v4.303
		c0,0.087-0.043,0.13-0.13,0.13h-0.988c-0.086,0-0.13-0.043-0.13-0.13v-6.357c0-0.086,0.044-0.13,0.13-0.13h0.988
		c0.087,0,0.13,0.044,0.13,0.13v0.352c0,0.018,0.009,0.028,0.026,0.032c0.017,0.005,0.034-0.007,0.052-0.032
		c0.312-0.382,0.75-0.572,1.313-0.572C302.293,53.444,302.71,53.629,303.001,53.997z"/>
	<path d="M309.461,59.691c-0.395-0.377-0.592-0.877-0.592-1.501v-2.691c0-0.615,0.199-1.113,0.599-1.495
		c0.398-0.381,0.932-0.571,1.599-0.571c0.676,0,1.214,0.19,1.612,0.571c0.398,0.382,0.598,0.88,0.598,1.495v2.691
		c0,0.624-0.199,1.124-0.598,1.501s-0.937,0.565-1.612,0.565S309.856,60.067,309.461,59.691z M311.756,58.872
		c0.182-0.195,0.272-0.453,0.272-0.773v-2.522c0-0.312-0.091-0.567-0.272-0.767c-0.183-0.199-0.412-0.299-0.689-0.299
		s-0.505,0.1-0.683,0.299s-0.267,0.455-0.267,0.767v2.522c0,0.32,0.089,0.578,0.267,0.773c0.178,0.194,0.405,0.292,0.683,0.292
		S311.574,59.067,311.756,58.872z"/>
	<path d="M318.711,60.023v-8.84c0-0.087,0.043-0.13,0.13-0.13h0.988c0.086,0,0.13,0.043,0.13,0.13v8.84
		c0,0.087-0.044,0.13-0.13,0.13h-0.988C318.754,60.152,318.711,60.109,318.711,60.023z"/>
	<path d="M325.984,59.691c-0.395-0.377-0.592-0.877-0.592-1.501v-2.691c0-0.615,0.199-1.113,0.599-1.495
		c0.398-0.381,0.932-0.571,1.599-0.571c0.676,0,1.214,0.19,1.612,0.571c0.398,0.382,0.598,0.88,0.598,1.495v2.691
		c0,0.624-0.199,1.124-0.598,1.501s-0.937,0.565-1.612,0.565S326.378,60.067,325.984,59.691z M328.279,58.872
		c0.182-0.195,0.272-0.453,0.272-0.773v-2.522c0-0.312-0.091-0.567-0.272-0.767c-0.183-0.199-0.412-0.299-0.689-0.299
		s-0.505,0.1-0.683,0.299s-0.267,0.455-0.267,0.767v2.522c0,0.32,0.089,0.578,0.267,0.773c0.178,0.194,0.405,0.292,0.683,0.292
		S328.096,59.067,328.279,58.872z"/>
	<path d="M338.406,53.535h0.988c0.086,0,0.13,0.044,0.13,0.13v6.292c0,0.91-0.208,1.614-0.624,2.113
		c-0.416,0.498-1.131,0.747-2.146,0.747l-0.351-0.013c-0.087-0.009-0.13-0.057-0.13-0.144v-0.832c0-0.087,0.048-0.13,0.143-0.13
		c0.711,0.026,1.198-0.115,1.463-0.423s0.396-0.786,0.396-1.436v-0.273c0-0.018-0.007-0.028-0.02-0.032
		c-0.013-0.005-0.028,0.002-0.046,0.02c-0.294,0.398-0.715,0.598-1.261,0.598c-0.572,0-1.012-0.184-1.319-0.553
		c-0.308-0.368-0.462-0.868-0.462-1.501v-2.601c0-0.641,0.156-1.146,0.469-1.515c0.312-0.368,0.749-0.552,1.312-0.552
		s0.983,0.199,1.261,0.598c0.018,0.018,0.033,0.021,0.046,0.013s0.02-0.021,0.02-0.039v-0.338
		C338.276,53.579,338.319,53.535,338.406,53.535z M338.022,58.781c0.169-0.195,0.254-0.449,0.254-0.761v-2.444
		c0-0.312-0.085-0.567-0.254-0.767s-0.392-0.299-0.669-0.299s-0.503,0.1-0.676,0.299c-0.174,0.199-0.261,0.455-0.261,0.767v2.444
		c0,0.312,0.087,0.565,0.261,0.761c0.173,0.194,0.398,0.292,0.676,0.292S337.853,58.976,338.022,58.781z"/>
	<path d="M344.867,62.7c-0.018-0.025-0.026-0.057-0.026-0.091v-0.767c0-0.087,0.044-0.131,0.13-0.131
		c0.277-0.009,0.496-0.052,0.657-0.13c0.16-0.078,0.29-0.226,0.39-0.441c0.1-0.217,0.184-0.533,0.254-0.949l-0.014-0.065
		l-1.664-6.447l-0.013-0.039c0-0.069,0.043-0.104,0.13-0.104h1.066c0.086,0,0.134,0.039,0.143,0.117l0.949,4.693
		c0.009,0.025,0.018,0.039,0.026,0.039s0.017-0.014,0.025-0.039l0.937-4.693c0.017-0.078,0.064-0.117,0.143-0.117l1.079,0.014
		c0.043,0,0.076,0.013,0.098,0.038c0.021,0.026,0.023,0.062,0.006,0.104l-1.78,6.916c-0.165,0.598-0.33,1.042-0.494,1.332
		c-0.165,0.291-0.393,0.496-0.683,0.618c-0.29,0.121-0.704,0.182-1.241,0.182h-0.065C344.901,62.739,344.884,62.727,344.867,62.7z"
		/>
</g>
</svg>
